<svg xmlns="http://www.w3.org/2000/svg" width="180" height="17" viewBox="0 0 180 17"><defs><linearGradient id="s" x1="0" y1="0" x2="0" y2="1"><stop offset="0" stop-color="#ffffff"/><stop offset="1" stop-color="#d6e5f0"/></linearGradient></defs><path fill="none" stroke="#020a14" stroke-opacity=".45" stroke-width="1.6" transform="translate(0 1.1)" d="M0,14.22 L2,14.29 L4,14.3 L6,14.25 L8,14.16 L10,14.02 L12,13.85 L14,13.66 L16,13.47 L18,13.28 L20,13.12 L22,13 L24,12.92 L26,12.9 L28,12.93 L30,13.01 L32,13.14 L34,13.3 L36,13.49 L38,13.69 L40,13.87 L42,14.04 L44,14.17 L46,14.26 L48,14.3 L50,14.28 L52,14.21 L54,14.09 L56,13.94 L58,13.76 L60,13.56 L62,13.37 L64,13.2 L66,13.06 L68,12.96 L70,12.91 L72,12.91 L74,12.97 L76,13.07 L78,13.22 L80,13.4 L82,13.59 L84,13.78 L86,13.96 L88,14.11 L90,14.22 L92,14.29 L94,14.3 L96,14.25 L98,14.16 L100,14.02 L102,13.85 L104,13.66 L106,13.47 L108,13.28 L110,13.12 L112,13 L114,12.92 L116,12.9 L118,12.93 L120,13.01 L122,13.14 L124,13.3 L126,13.49 L128,13.69 L130,13.87 L132,14.04 L134,14.17 L136,14.26 L138,14.3 L140,14.28 L142,14.21 L144,14.09 L146,13.94 L148,13.76 L150,13.56 L152,13.37 L154,13.2 L156,13.06 L158,12.96 L160,12.91 L162,12.91 L164,12.97 L166,13.07 L168,13.22 L170,13.4 L172,13.59 L174,13.78 L176,13.96 L178,14.11 L180,14.22"/><path fill="url(#s)" d="M0,9.09 L2,9.27 L4,9.34 L6,9.29 L8,9.14 L10,8.88 L12,8.55 L14,8.16 L16,7.76 L18,7.37 L20,7.04 L22,6.79 L24,6.64 L26,6.62 L28,6.71 L30,6.9 L32,7.19 L34,7.53 L36,7.9 L38,8.27 L40,8.6 L42,8.87 L44,9.06 L46,9.16 L48,9.17 L50,9.08 L52,8.93 L54,8.73 L56,8.49 L58,8.25 L60,8 L62,7.77 L64,7.55 L66,7.36 L68,7.17 L70,6.98 L72,6.77 L74,6.54 L76,6.27 L78,5.96 L80,5.61 L82,5.24 L84,4.86 L86,4.49 L88,4.17 L90,3.91 L92,3.73 L94,3.66 L96,3.71 L98,3.86 L100,4.12 L102,4.45 L104,4.84 L106,5.24 L108,5.63 L110,5.96 L112,6.21 L114,6.36 L116,6.38 L118,6.29 L120,6.1 L122,5.81 L124,5.47 L126,5.1 L128,4.73 L130,4.4 L132,4.13 L134,3.94 L136,3.84 L138,3.83 L140,3.92 L142,4.07 L144,4.27 L146,4.51 L148,4.75 L150,5 L152,5.23 L154,5.45 L156,5.64 L158,5.83 L160,6.02 L162,6.23 L164,6.46 L166,6.73 L168,7.04 L170,7.39 L172,7.76 L174,8.14 L176,8.51 L178,8.83 L180,9.09 L180,14.22 L178,14.11 L176,13.96 L174,13.78 L172,13.59 L170,13.4 L168,13.22 L166,13.07 L164,12.97 L162,12.91 L160,12.91 L158,12.96 L156,13.06 L154,13.2 L152,13.37 L150,13.56 L148,13.76 L146,13.94 L144,14.09 L142,14.21 L140,14.28 L138,14.3 L136,14.26 L134,14.17 L132,14.04 L130,13.87 L128,13.69 L126,13.49 L124,13.3 L122,13.14 L120,13.01 L118,12.93 L116,12.9 L114,12.92 L112,13 L110,13.12 L108,13.28 L106,13.47 L104,13.66 L102,13.85 L100,14.02 L98,14.16 L96,14.25 L94,14.3 L92,14.29 L90,14.22 L88,14.11 L86,13.96 L84,13.78 L82,13.59 L80,13.4 L78,13.22 L76,13.07 L74,12.97 L72,12.91 L70,12.91 L68,12.96 L66,13.06 L64,13.2 L62,13.37 L60,13.56 L58,13.76 L56,13.94 L54,14.09 L52,14.21 L50,14.28 L48,14.3 L46,14.26 L44,14.17 L42,14.04 L40,13.87 L38,13.69 L36,13.49 L34,13.3 L32,13.14 L30,13.01 L28,12.93 L26,12.9 L24,12.92 L22,13 L20,13.12 L18,13.28 L16,13.47 L14,13.66 L12,13.85 L10,14.02 L8,14.16 L6,14.25 L4,14.3 L2,14.29 L0,14.22Z"/></svg>
