<svg xmlns="http://www.w3.org/2000/svg" width="460" height="104" viewBox="0 0 460 104"><style>.tw{animation:tw 3.8s ease-in-out infinite alternate}@keyframes tw{from{opacity:.1}to{opacity:.9}}@media (prefers-reduced-motion:reduce){.tw{animation:none}}</style><g fill="#f3e9ff"><circle class="tw" style="animation-delay:-0.06s" cx="422.89" cy="58.97" r="0.7"/><circle cx="142.26" cy="25.37" r="0.7" opacity="0.31"/><circle cx="90.17" cy="29.23" r="0.6" opacity="0.53"/><circle cx="412.35" cy="9.25" r="1.2" opacity="0.47"/><circle cx="11.89" cy="40.03" r="0.8" opacity="0.41"/><circle cx="29.13" cy="49.2" r="1" opacity="0.42"/><circle cx="81.06" cy="15.75" r="1.2" opacity="0.41"/><circle cx="347.94" cy="24.75" r="1" opacity="0.38"/><circle cx="445.48" cy="36.81" r="0.8" opacity="0.33"/><circle class="tw" style="animation-delay:-2.44s" cx="222.32" cy="49.7" r="1.4"/><circle cx="85.64" cy="13.53" r="0.7" opacity="0.55"/><circle cx="239.11" cy="37.36" r="0.5" opacity="0.29"/><circle cx="20.68" cy="19.26" r="1" opacity="0.38"/><circle cx="270.84" cy="9.43" r="0.7" opacity="0.49"/><circle cx="409.12" cy="29.83" r="0.6" opacity="0.37"/><circle cx="51.64" cy="49.24" r="1.2" opacity="0.61"/><circle cx="226.83" cy="22.37" r="0.6" opacity="0.66"/><circle cx="272.08" cy="58.78" r="0.6" opacity="0.45"/><circle class="tw" style="animation-delay:-0.09s" cx="18.34" cy="40.22" r="1"/><circle cx="370.54" cy="43.55" r="0.6" opacity="0.61"/></g></svg>
